# AST/ASF file generated using VICON BodyLanguage
# -----------------------------------------------
:version 1.10
:name VICON
:units
  mass 1.0
  length 0.45
  angle deg
:documentation
   .ast/.asf automatically generated from VICON data using
   VICON BodyBuilder and BodyLanguage model FoxedUp or BRILLIANT.MOD
:root
   order TX TY TZ RX RY RZ
   axis XYZ
   position 0 0 0  
   orientation 0 -0 0 
:bonedata
  begin
     id 1 
     name lhipjoint
     direction 0.515797 -0.759363 0.396637 
     length 2.47888 
     axis 0 -0 0  XYZ
  end
  begin
     id 2 
     name lfemur
     direction 0.34202 -0.939693 0  
     length 6.81885  
     axis 0 -0 20  XYZ
    dof rx ry rz
    limits (-160.0 20.0)
           (-70.0 70.0)
           (-60.0 70.0)
  end
  begin
     id 3 
     name ltibia
     direction 0.342037 -0.939687 0   
     length 7.89258   
     axis 0 -0 20   XYZ
    dof rx
    limits (-10.0 170.0)
  end
  begin
     id 4 
     name lfoot
     direction 0.173497 -0.476678 0.861787   
     length 2.51543   
     axis -90 -1.13533e-015 20   XYZ
    dof rx rz
    limits (-45.0 90.0)
           (-70.0 20.0)
  end
  begin
     id 5 
     name ltoes
     direction 1.53564e-011 -4.21897e-011 1   
     length 1.21388   
     axis -90 -1.13533e-015 20   XYZ
    dof rx
    limits (-90.0 20.0)
  end
  begin
     id 6 
     name rhipjoint
     direction -0.489454 -0.772941 0.403729   
     length 2.43534  
     axis 0 -0 0  XYZ 
  end
  begin
     id 7 
     name rfemur
     direction -0.34202 -0.939693 0   
     length 7.10357   
     axis 0 -0 -20   XYZ
    dof rx ry rz
    limits (-160.0 20.0)
           (-70.0 70.0)
           (-70.0 60.0)
  end
  begin
     id 8 
     name rtibia
     direction -0.34202 -0.939693 0   
     length 9.16127   
     axis 0 -0 -20   XYZ
    dof rx
    limits (-10.0 170.0)
 end
 begin
     id 9 
     name rfoot
     direction -0.270974 -0.748671 0.605033   
     length 1.74894  
     axis -90 1.13533e-015 -20   XYZ
    dof rx rz
    limits (-45.0 90.0)
           (-20.0 70.0)
  end
  begin
     id 10 
     name rtoes
     direction -1.53557e-011 -4.21759e-011 1   
     length 0.787585   
     axis -90 1.13533e-015 -20   XYZ
    dof rx
    limits (-90.0 20.0)
  end
  begin
     id 11 
     name lowerback
     direction -0.0140249 0.999561 0.0260968   
     length 2.16963   
     axis 0 -0 0   XYZ
    dof rx ry rz
    limits (-20.0 45.0)
           (-30.0 30.0)
           (-30.0 30.0)
  end
  begin
     id 12 
     name upperback
     direction 0.00860018 0.999959 -0.002711   
     length 2.1726   
     axis 0 -0 0   XYZ
    dof rx ry rz
    limits (-20.0 45.0)
           (-30.0 30.0)
           (-30.0 30.0)
  end
  begin
     id 13 
     name thorax
     direction 0.015211 0.999782 -0.0143191   
     length 2.17061   
     axis 0 -0 0   XYZ
    dof rx ry rz
    limits (-20.0 45.0)
           (-30.0 30.0)
           (-30.0 30.0)
  end
  begin
     id 14 
     name lowerneck
     direction -0.0140143 0.999447 0.030145   
     length 2.26749   
     axis 0 -0 0   XYZ
    dof rx ry rz
    limits (-20.0 45.0)
           (-30.0 30.0)
           (-30.0 30.0)
  end
  begin
     id 15 
     name upperneck
     direction 0.118062 0.961438 -0.248392   
     length 2.22728   
     axis 0 -0 0   XYZ
    dof rx ry rz
    limits (-20.0 45.0)
           (-30.0 30.0)
           (-30.0 30.0)
  end
  begin
     id 16
     name head
     direction 0.0431885 0.9954 -0.085514  
     length 2.28786  
     axis 0 -0 0   XYZ
    dof rx ry rz
    limits (-20.0 45.0)
           (-30.0 30.0)
           (-30.0 30.0)
  end
  begin
     id 17 
     name lclavicle
     direction 0.912126 0.409548 0.0172323  
     length 4.31571  
     axis 0 -0 0   XYZ
    dof ry rz
    limits (-20.0 10.0)
           (0.0 20.0)
  end
  begin
     id 18 
     name lhumerus
     direction 1 -4.48977e-011 1.93091e-027   
     length 5.13658   
     axis 180 -30 -90   XYZ
    dof rx ry rz
    limits (-60.0 90.0)
           (-90.0 90.0)
           (-90.0 90.0)
  end
  begin
     id 19
     name lradius
     direction 1 -4.48916e-011 6.84018e-027   
     length 3.22473   
     axis 180 -30 -90   XYZ
    dof rx
    limits (-10.0 170.0)
  end
  begin
     id 20
     name lwrist
     direction 1 -4.48987e-011 7.01981e-027   
     length 1.61236   
     axis -4.37994e-015 90 90   XYZ
    dof ry
    limits (-180.0 0.0)
 end
  begin
     id 21 
     name lhand
     direction 1 -4.49037e-011 1.40335e-026   
     length 0.936406   
     axis -8.96029e-015 90 90   XYZ
    dof rx rz
    limits (-90.0 90.0)
           (-45.0 45.0)
  end
  begin
     id 22 
     name lfingers
     direction 1 -4.48886e-011 2.8104e-026   
     length 0.754955   
     axis -1.79203e-014 90 90   XYZ
    dof rx
    limits (0.0 90.0)
  end
  begin
     id 23
     name lthumb
     direction 0.707107 -6.34937e-011 0.707107   
     length 1.08397   
     axis -90 45 -4.48555e-014   XYZ
    dof rx rz
    limits (-45.0 45.0)
           (-45.0 45.0)
  end
  begin
     id 24 
     name rclavicle
     direction -0.947962 0.317997 0.0156638   
     length 4.86918  
     axis 0 -0 0   XYZ 
    dof ry rz
    limits (-10.0 20.0)
           (-20.0 0.0)
  end
  begin
     id 25 
     name rhumerus
     direction -1 -4.48951e-011 2.80534e-018  
     length 5.60911   
     axis 180 30 90   XYZ
    dof rx ry rz
    limits (-90.0 60.0)
           (-90.0 90.0)
           (-90.0 90.0)
  end
  begin
     id 26 
     name rradius
     direction -1 -4.4898e-011 2.11315e-027   
     length 3.38704   
     axis 180 30 90   XYZ
    dof rx
    limits (-10.0 170.0)
  end
  begin
     id 27 
     name rwrist
     direction -1 -4.48933e-011 7.02314e-027   
     length 1.69352   
     axis -4.37994e-015 -90 -90   XYZ
    dof ry
    limits (-180.0 0.0)
  end
  begin
     id 28
     name rhand
     direction -1 -4.48937e-011 1.40458e-026   
     length 0.755878   
     axis -8.96029e-015 -90 -90   XYZ
    dof rx rz
    limits (-90.0 90.0)
           (-45.0 45.0)
  end
  begin
     id 29
     name rfingers
     direction -1 -4.4901e-011 2.80737e-026   
     length 0.609409   
     axis -1.79203e-014 -90 -90   XYZ
    dof rx
    limits (0.0 90.0)
  end
  begin
     id 30
     name rthumb
     direction -0.707107 -6.34968e-011 0.707107   
     length 0.874992   
     axis -90 -45 4.48555e-014   XYZ
    dof rx rz
    limits (-45.0 45.0)
           (-45.0 45.0)
  end
:hierarchy
  begin
    root lhipjoint rhipjoint lowerback
    lhipjoint lfemur
    lfemur ltibia
    ltibia lfoot
    lfoot ltoes
    rhipjoint rfemur
    rfemur rtibia
    rtibia rfoot
    rfoot rtoes
    lowerback upperback
    upperback thorax
    thorax lowerneck lclavicle rclavicle
    lowerneck upperneck
    upperneck head
    lclavicle lhumerus
    lhumerus lradius
    lradius lwrist
    lwrist lhand lthumb
    lhand lfingers
    rclavicle rhumerus
    rhumerus rradius
    rradius rwrist
    rwrist rhand rthumb
    rhand rfingers
  end

#!OML:ASF C:\ViconDB\ViconDB\414\Spring2016\041811\Spring2016.ASF
:FULLY-SPECIFIED
:DEGREES
16
root 13.1267 18.0981 9.85186 -174.094 -5.01038 -178.269
lowerback -7.96088 1.05595 -2.23238
upperback 0.510017 1.57738 0.598954
thorax 4.92087 0.708022 2.06717
lowerneck -11.5816 2.32768 -5.4788
upperneck 24.0158 0.122087 12.0535
head 9.38653 0.338291 5.08024
rclavicle -2.13072e-014 -6.36111e-015
rhumerus -83.4455 30.2075 -114.366
rradius 86.8354
rwrist 31.0601
rhand -47.8107 -0.732121
rfingers 7.12502
rthumb -20.4865 -29.6713
lclavicle -2.13072e-014 -6.36111e-015
lhumerus -84.468 -42.9126 119.337
lradius 75.7666
lwrist -28.4859
lhand -46.3354 -2.13162
lfingers 7.12502
lthumb -19.0682 26.9537
rfemur 164.523 56.4594 -171.992
rtibia 29.3261
rfoot -57.3562 -44.9436
rtoes -29.6536
lfemur -6.36557 -12.2781 -13.4577
ltibia 23.7323
lfoot -25.4724 6.80302
ltoes -12.9761
17
root 13.1185 18.0985 9.85247 -174.079 -5.11911 -178.245
lowerback -7.8712 1.01765 -2.22259
upperback 0.474793 1.52244 0.604338
thorax 4.83632 0.682566 2.0579
lowerneck -11.5498 2.33055 -5.42677
upperneck 24.0215 0.119979 12.0134
head 9.38342 0.335887 5.05585
rclavicle -2.14936e-014 7.15625e-015
rhumerus -83.5092 30.2391 -114.442
rradius 86.8517
rwrist 30.9149
rhand -47.7103 -0.446268
rfingers 7.12502
rthumb -20.39 -29.3958
lclavicle -2.14936e-014 7.15625e-015
lhumerus -84.5617 -42.9075 119.375
lradius 75.712
lwrist -28.8414
lhand -46.3966 -1.73865
lfingers 7.12502
lthumb -19.1271 27.3408
rfemur 164.516 56.4002 -172.012
rtibia 29.2926
rfoot -57.1145 -44.9955
rtoes -29.5822
lfemur -6.43499 -12.2229 -13.4288
ltibia 23.7634
lfoot -25.4105 6.65961
ltoes -13.044
18
root 13.1091 18.0985 9.85191 -174.054 -5.15436 -178.295
lowerback -7.8013 0.999223 -2.3042
upperback 0.455115 1.50453 0.588965
thorax 4.77564 0.672989 2.08364
lowerneck -11.6198 2.33142 -5.321
upperneck 24.0953 0.101107 11.9593
head 9.42644 0.331669 5.02048
rclavicle -1.30452e-015 -2.98177e-015
rhumerus -83.5105 30.2349 -114.466
rradius 86.8518
rwrist 30.8127
rhand -47.6626 -0.0571024
rfingers 7.12502
rthumb -20.3441 -29.0115
lclavicle -1.30452e-015 -2.98177e-015
lhumerus -84.5998 -42.937 119.414
lradius 75.6592
lwrist -28.9576
lhand -46.4169 -1.56928
lfingers 7.12502
lthumb -19.1467 27.5083
rfemur 164.543 56.2696 -172.083
rtibia 29.272
rfoot -56.8846 -45.0298
rtoes -29.3557
lfemur -6.48918 -12.062 -13.4856
ltibia 23.7771
lfoot -25.4198 6.4692
ltoes -12.7745
19
root 13.0999 18.1001 9.85047 -174.06 -5.14888 -178.358
lowerback -7.71651 1.00987 -2.37307
upperback 0.460093 1.52553 0.5532
thorax 4.73119 0.683055 2.08554
lowerneck -11.6233 2.32178 -5.34597
upperneck 24.0453 0.0745125 12.055
head 9.41166 0.327163 5.05438
rclavicle 2.00773e-014 7.15625e-015
rhumerus -83.516 30.2448 -114.497
rradius 86.8517
rwrist 30.7637
rhand -47.7079 -0.011251
rfingers 7.12502
rthumb -20.3877 -28.961
lclavicle 2.00773e-014 7.15625e-015
lhumerus -84.6559 -42.9802 119.407
lradius 75.6648
lwrist -28.9936
lhand -46.435 -1.72219
lfingers 7.12502
lthumb -19.164 27.3536
rfemur 164.535 56.1001 -172.211
rtibia 29.2255
rfoot -56.628 -45.0522
rtoes -29.3982
lfemur -6.47044 -12.5838 -13.6068
ltibia 23.8014
lfoot -25.5686 6.77323
ltoes -12.5847
20
root 13.0888 18.098 9.85023 -174.106 -5.11025 -178.426
lowerback -7.59106 1.03535 -2.44113
upperback 0.476874 1.56428 0.543193
thorax 4.67446 0.701885 2.11487
lowerneck -11.6244 2.30717 -5.38063
upperneck 24.0218 0.0626085 12.0728
head 9.40445 0.321513 5.06482
rclavicle -3.32095e-014 3.77691e-015
rhumerus -83.4901 30.2423 -114.456
rradius 86.791
rwrist 30.8326
rhand -47.7512 -0.0226284
rfingers 7.12502
rthumb -20.4294 -28.9679
lclavicle -3.32095e-014 3.77691e-015
lhumerus -84.6389 -43.0243 119.485
lradius 75.5689
lwrist -28.9774
lhand -46.5345 -1.7413
lfingers 7.12502
lthumb -19.2597 27.325
rfemur 164.456 55.7734 -172.407
rtibia 29.1905
rfoot -56.1965 -45.002
rtoes -29.4845
lfemur -6.41343 -12.5334 -13.7333
ltibia 23.821
lfoot -25.5409 6.74268
ltoes -12.6464
21
root 13.0764 18.0977 9.84854 -174.03 -5.1954 -178.397
lowerback -7.61854 1.00321 -2.35363
upperback 0.458186 1.51407 0.528923
thorax 4.67566 0.679296 2.04558
lowerneck -11.6363 2.31181 -5.43467
upperneck 24.0178 0.0591679 12.155
head 9.40457 0.323024 5.10346
rclavicle 2.04251e-014 1.19271e-015
rhumerus -83.4818 30.2662 -114.508
rradius 86.7152
rwrist 30.9043
rhand -47.7275 -0.0554088
rfingers 7.12502
rthumb -20.4065 -29.0032
lclavicle 2.04251e-014 1.19271e-015
lhumerus -84.7036 -43.0692 119.526
lradius 75.5632
lwrist -28.9065
lhand -46.6293 -1.65251
lfingers 7.12502
lthumb -19.3509 27.4047
rfemur 164.582 55.7321 -172.348
rtibia 29.128
rfoot -56.0292 -45.0094
rtoes -29.5329
lfemur -6.53506 -12.753 -13.7045
ltibia 23.8627
lfoot -25.6124 6.6927
ltoes -12.3748
22
root 13.0632 18.0975 9.84163 -173.918 -5.1077 -178.382
lowerback -7.75007 1.02453 -2.30947
upperback 0.448164 1.5413 0.514691
thorax 4.73947 0.692716 2.01218
lowerneck -11.5911 2.31173 -5.24336
upperneck 23.9434 0.0785262 11.9678
head 9.37135 0.332046 5.00098
rclavicle -2.02388e-014 9.93923e-016
rhumerus -83.4992 30.3231 -114.565
rradius 86.679
rwrist 31.0073
rhand -47.7899 -0.253589
rfingers 7.12502
rthumb -20.4665 -29.1949
lclavicle -2.02388e-014 9.93923e-016
lhumerus -84.8231 -43.1195 119.634
lradius 75.6244
lwrist -28.8278
lhand -46.5841 -1.46143
lfingers 7.12502
lthumb -19.3074 27.6001
rfemur 164.821 55.721 -172.214
rtibia 29.0602
rfoot -56.0582 -45.0562
rtoes -29.4892
lfemur -6.65345 -12.6038 -13.717
ltibia 23.9368
lfoot -25.6633 6.63467
ltoes -12.3589
23
root 13.0533 18.0978 9.84075 -173.893 -5.25811 -178.318
lowerback -7.69293 0.969153 -2.32448
upperback 0.434938 1.46356 0.591472
thorax 4.69503 0.653725 2.08995
lowerneck -11.5848 2.29721 -5.32062
upperneck 23.9172 0.0878968 11.9532
head 9.35917 0.330066 5.00937
rclavicle 2.19409e-014 3.97569e-016
rhumerus -83.5901 30.4199 -114.572
rradius 86.7298
rwrist 30.9307
rhand -47.655 -0.701221
rfingers 7.12502
rthumb -20.3369 -29.6564
lclavicle 2.19409e-014 3.97569e-016
lhumerus -84.8825 -43.093 119.77
lradius 75.6531
lwrist -28.8158
lhand -46.5361 -1.41842
lfingers 7.12502
lthumb -19.2612 27.6477
rfemur 164.83 55.642 -172.205
rtibia 28.9793
rfoot -55.7152 -45.1176
rtoes -29.0677
lfemur -6.76259 -12.5868 -13.6427
ltibia 24.0188
lfoot -25.6381 6.47596
ltoes -12.3629
24
root 13.0422 18.1002 9.83865 -173.838 -5.3358 -178.318
lowerback -7.74087 0.958536 -2.32537
upperback 0.478795 1.45317 0.564906
thorax 4.76908 0.647623 2.06354
lowerneck -11.788 2.29202 -5.41229
upperneck 23.9846 0.0488216 12.1518
head 9.42412 0.329673 5.10015
rclavicle -2.57178e-015 -8.15017e-015
rhumerus -83.5026 30.4652 -114.58
rradius 86.7048
rwrist 30.8727
rhand -47.4393 0.199998
rfingers 7.12502
rthumb -20.1296 -28.7771
lclavicle -2.57178e-015 -8.15017e-015
lhumerus -84.817 -43.2371 119.737
lradius 75.5895
lwrist -28.7945
lhand -46.5342 -1.60471
lfingers 7.12502
lthumb -19.2594 27.4616
rfemur 164.925 55.5744 -172.199
rtibia 28.8975
rfoot -55.512 -45.1372
rtoes -28.9768
lfemur -6.90615 -12.248 -13.6453
ltibia 24.1134
lfoot -25.5215 6.23618
ltoes -12.6387
25
root 13.0314 18.0979 9.83481 -173.816 -5.36108 -178.328
lowerback -7.72536 0.965955 -2.31365
upperback 0.486355 1.46442 0.51503
thorax 4.76921 0.654177 2.00612
lowerneck -11.8407 2.29613 -5.31842
upperneck 23.9803 0.0331824 12.1605
head 9.43569 0.333472 5.08618
rclavicle -7.46685e-015 -3.97569e-016
rhumerus -83.4529 30.4435 -114.627
rradius 86.6404
rwrist 30.8942
rhand -48.0615 -1.42232
rfingers 7.12502
rthumb -20.7275 -30.3354
lclavicle -7.46685e-015 -3.97569e-016
lhumerus -84.9385 -43.3812 119.776
lradius 75.6193
lwrist -28.7151
lhand -46.553 -1.75122
lfingers 7.12502
lthumb -19.2775 27.3133
rfemur 164.935 55.5436 -172.258
rtibia 28.8614
rfoot -55.3712 -45.1678
rtoes -28.9315
lfemur -6.92334 -12.428 -13.6819
ltibia 24.1431
lfoot -25.6316 6.21999
ltoes -12.3194
26
root 13.0215 18.0973 9.83162 -173.793 -5.42872 -178.25
lowerback -7.69763 0.936981 -2.28034
upperback 0.481865 1.41989 0.558132
thorax 4.75082 0.632767 2.02638
lowerneck -11.8907 2.30353 -5.33752
upperneck 23.99 0.0548305 12.1529
head 9.44637 0.344126 5.09091
rclavicle -1.84994e-014 -8.94531e-015
rhumerus -83.4578 30.5121 -114.622
rradius 86.59
rwrist 30.9336
rhand -48.1933 -1.61597
rfingers 7.12502
rthumb -20.8541 -30.5152
lclavicle -1.84994e-014 -8.94531e-015
lhumerus -84.8826 -43.3702 119.773
lradius 75.5521
lwrist -28.6796
lhand -46.5744 -1.89422
lfingers 7.12502
lthumb -19.2981 27.1682
rfemur 164.97 55.5665 -172.207
rtibia 28.8023
rfoot -55.301 -45.1437
rtoes -28.7628
lfemur -6.99016 -12.5033 -13.6242
ltibia 24.2087
lfoot -25.6741 6.23401
ltoes -12.2926
27
root 13.0132 18.0943 9.82915 -173.787 -5.24113 -178.608
lowerback -7.62068 0.98575 -2.72484
upperback 0.49663 1.52902 0.468396
thorax 4.7087 0.677615 2.19377
lowerneck -11.9283 2.28988 -5.36977
upperneck 23.9826 0.0357107 12.1972
head 9.45253 0.33885 5.11119
rclavicle -2.90101e-014 1.64991e-014
rhumerus -83.4105 30.4746 -114.614
rradius 86.4735
rwrist 31.0778
rhand -47.9305 -0.756203
rfingers 7.12502
rthumb -20.6017 -29.6829
lclavicle -2.90101e-014 1.64991e-014
lhumerus -84.9583 -43.41 119.885
lradius 75.5593
lwrist -28.7176
lhand -46.5583 -1.83927
lfingers 7.12502
lthumb -19.2826 27.2247
rfemur 164.992 55.0064 -172.638
rtibia 28.7666
rfoot -54.7288 -45.1905
rtoes -28.8913
lfemur -6.93293 -12.5262 -14.0886
ltibia 24.24
lfoot -25.7549 6.38686
ltoes -12.4344
28
root 12.9965 18.0934 9.82184 -173.748 -5.27561 -178.317
lowerback -7.73633 1.00909 -2.39016
upperback 0.536018 1.52926 0.546668
thorax 4.82126 0.683017 2.09058
lowerneck -11.9593 2.27698 -5.36435
upperneck 23.9161 0.0513854 12.1429
head 9.43418 0.346891 5.09093
rclavicle 2.48729e-014 -1.98785e-015
rhumerus -83.3864 30.5362 -114.569
rradius 86.4779
rwrist 31.1086
rhand -47.8504 -0.836096
rfingers 7.12502
rthumb -20.5247 -29.7711
lclavicle 2.48729e-014 -1.98785e-015
lhumerus -84.8788 -43.4092 119.944
lradius 75.5206
lwrist -28.7234
lhand -46.5361 -1.68369
lfingers 7.12502
lthumb -19.2612 27.3825
rfemur 165.106 55.2215 -172.315
rtibia 28.6741
rfoot -54.9619 -45.2184
rtoes -28.5835
lfemur -7.02234 -12.3507 -13.8162
ltibia 24.335
lfoot -25.788 6.31939
ltoes -12.5093
29
root 12.9832 18.0947 9.82111 -173.681 -5.44633 -178.407
lowerback -7.71357 0.962478 -2.48197
upperback 0.525824 1.47676 0.509813
thorax 4.79929 0.655607 2.09713
lowerneck -11.9878 2.26975 -5.3656
upperneck 23.8868 0.0379129 12.1838
head 9.43078 0.346663 5.10396
rclavicle -4.78823e-014 3.77691e-015
rhumerus -83.405 30.5673 -114.607
rradius 86.5358
rwrist 30.9921
rhand -47.7998 -0.946489
rfingers 7.12502
rthumb -20.476 -29.8868
lclavicle -4.78823e-014 3.77691e-015
lhumerus -84.9881 -43.5268 119.999
lradius 75.5893
lwrist -28.5875
lhand -46.4874 -1.66651
lfingers 7.12502
lthumb -19.2144 27.4043
rfemur 165.154 55.1411 -172.461
rtibia 28.5903
rfoot -54.5316 -45.2846
rtoes -28.4571
lfemur -7.17995 -12.4704 -13.9312
ltibia 24.425
lfoot -25.8003 6.26702
ltoes -12.2659
